<svg xmlns="http://www.w3.org/2000/svg" xmlns:xlink="http://www.w3.org/1999/xlink" viewBox="0 0 72 72" role="img" aria-label="Synology DSM">
  <svg x="4" y="4" width="64" height="64" viewBox="0 0 72 72" preserveAspectRatio="xMidYMid meet">

  <title id="title">Synology DSM</title>
  <rect x="6" y="6" width="60" height="60" rx="14" fill="#A7A5A6"/>
  <path d="M20 28c0-6 4-10 11-10 7 0 11 3 12 9l-7 1c-1-3-2-4-5-4-2 0-4 1-4 3 0 2 2 2 7 4 7 2 10 5 10 10 0 6-5 10-12 10-8 0-12-4-13-10l7-1c1 3 3 5 6 5 3 0 5-1 5-3 0-2-2-3-7-4-7-2-10-5-10-10z" fill="#FFFFFF"/>

  </svg>
</svg>
